<?xml version="1.0" encoding="utf-8"?>
<!-- Generator: Adobe Illustrator 24.0.1, SVG Export Plug-In . SVG Version: 6.00 Build 0)  -->
<svg version="1.1" id="Layer_1" xmlns="http://www.w3.org/2000/svg" xmlns:xlink="http://www.w3.org/1999/xlink" x="0px" y="0px"
	 viewBox="0 0 167.5 160" style="enable-background:new 0 0 167.5 160;" xml:space="preserve">
<path d="M53.8,132.2H31.9V61.6h21.9V132.2z M56,39.1c0-7.1-5.7-12.8-12.8-12.8c-7.1,0-12.8,5.7-12.8,12.8c0,7.1,5.7,12.8,12.8,12.8
	C50.3,51.9,56,46.1,56,39.1z M135.7,93.3c0-19-4-33-26.2-33c-10.6,0-17.8,5.3-20.7,10.9h0v-9.6H67.6v70.6h21.3V97.1
	c0-9.2,2.3-18.1,13.7-18.1c11.2,0,11.6,10.5,11.6,18.7v34.5h21.6V93.3z M163.8,141.3V18.8c0-10.3-8.4-18.8-18.8-18.8H22.6
	C12.2,0,3.8,8.4,3.8,18.8v122.5c0,10.3,8.4,18.8,18.8,18.8h122.5C155.4,160,163.8,151.6,163.8,141.3z M145.1,12.5
	c3.4,0,6.3,2.8,6.3,6.3v122.5c0,3.4-2.8,6.3-6.3,6.3H22.6c-3.4,0-6.3-2.8-6.3-6.3V18.8c0-3.4,2.8-6.3,6.3-6.3H145.1z"/>
</svg>
